<svg viewBox="0 0 200 260" xmlns="http://www.w3.org/2000/svg">
  <!-- Ribbon -->
  <path d="M 60 40 L 70 90 L 70 100 L 130 100 L 130 90 L 140 40" fill="#DC143C"/>
  <path d="M 70 90 L 80 100 L 120 100 L 130 90" fill="#8B0000"/>

  <!-- Medal Circle Background -->
  <circle cx="100" cy="120" r="70" fill="#CD7F32"/>
  <circle cx="100" cy="120" r="65" fill="#D4A574"/>

  <!-- Laurel Wreath -->
  <path d="M 45 120 Q 50 100 70 95 Q 85 92 100 95 Q 115 92 130 95 Q 150 100 155 120"
        fill="none" stroke="#8B4513" stroke-width="3" opacity="0.7"/>
  <path d="M 45 120 Q 50 140 70 145 Q 85 148 100 145 Q 115 148 130 145 Q 150 140 155 120"
        fill="none" stroke="#8B4513" stroke-width="3" opacity="0.7"/>

  <!-- Number 3 -->
  <text x="100" y="135" font-size="60" font-weight="bold" text-anchor="middle" fill="#8B4513">3</text>
</svg>